<svg width="405" height="277" viewBox="0 0 405 277" fill="none" xmlns="http://www.w3.org/2000/svg">
<path fill-rule="evenodd" clip-rule="evenodd" d="M102.367 239.688C94.087 242.626 85.1191 244.232 75.7544 244.232C33.9164 244.232 0 212.167 0 172.613C0 156.22 5.82578 141.113 15.6268 129.042C12.0621 120.735 10.0988 111.652 10.0988 102.135C10.0988 62.5812 44.0151 30.5163 85.8531 30.5163C97.2202 30.5163 108.003 32.8832 117.679 37.1242C124.969 15.5904 146.314 0 171.51 0C192.309 0 210.483 10.6225 220.294 26.442C237.977 14.118 259.832 6.83472 283.486 6.83472C342.364 6.83472 390.093 51.9586 390.093 107.622C390.093 114.578 389.348 121.371 387.928 127.93C398.639 141.13 405 157.617 405 175.5C405 218.854 367.616 254 321.5 254C306.708 254 292.815 250.384 280.765 244.041C258.173 264.439 227.562 276.966 193.856 276.966C157.814 276.966 125.311 262.642 102.367 239.688Z" fill="white"/>
</svg>
