<svg width="437" height="341" viewBox="0 0 437 341" fill="none" xmlns="http://www.w3.org/2000/svg">
<path fill-rule="evenodd" clip-rule="evenodd" d="M226.195 316.77C212.321 331.498 192.11 340.773 169.608 340.773C127.77 340.773 93.8536 308.708 93.8536 269.154C93.8536 266.551 94.0004 263.981 94.2868 261.449C88.6573 262.711 82.7847 263.379 76.7472 263.379C34.9092 263.379 0.992798 231.314 0.992798 191.76C0.992798 172.638 8.91967 155.266 21.8363 142.421C19.4105 135.409 18.0988 127.92 18.0988 120.141C18.0988 80.5869 52.0152 48.522 93.8532 48.522C104.489 48.522 114.613 50.5941 123.797 54.3347C123.792 54.0341 123.789 53.733 123.789 53.4313C123.789 23.9252 149.09 0.0057373 180.3 0.0057373C206.645 0.0057373 228.78 17.0503 235.04 40.1119C251.409 30.4341 270.757 24.8405 291.487 24.8405C350.364 24.8405 398.093 69.9644 398.093 125.628C398.093 131.572 397.549 137.397 396.505 143.059C420.393 155.108 436.65 178.903 436.65 206.288C436.65 245.842 402.734 277.907 360.896 277.907C352.178 277.907 343.805 276.515 336.01 273.953C312.927 300.459 277.952 317.36 238.801 317.36C234.546 317.36 230.341 317.16 226.195 316.77Z" fill="white"/>
</svg>
