<svg width="20" height="27" viewBox="0 0 20 27" fill="none" xmlns="http://www.w3.org/2000/svg">
<path d="M10.1605 0.489502C4.88295 0.489502 0.588867 4.78359 0.588867 10.0617C0.588867 11.4384 0.870651 12.7528 1.42597 13.9689C3.81914 19.2057 8.40752 24.7347 9.75711 26.3043C9.85822 26.4217 10.0056 26.4892 10.1608 26.4892C10.3159 26.4892 10.4633 26.4217 10.5644 26.3043C11.9135 24.7349 16.5018 19.2062 18.8958 13.9689C19.4514 12.7528 19.7329 11.4384 19.7329 10.0617C19.7324 4.78359 15.4383 0.489502 10.1605 0.489502ZM10.1605 15.0335C7.41901 15.0335 5.18842 12.8029 5.18842 10.0614C5.18842 7.31965 7.41901 5.08905 10.1605 5.08905C12.902 5.08905 15.1326 7.31965 15.1326 10.0614C15.1328 12.8029 12.9022 15.0335 10.1605 15.0335Z" fill="white"/>
</svg>
