<svg width="25" height="25" viewBox="0 0 25 25" fill="none" xmlns="http://www.w3.org/2000/svg">
<path d="M7.60208 19.7102C6.26396 19.7102 5.16913 20.805 5.16913 22.1432C5.16913 23.4813 6.26396 24.5761 7.60208 24.5761C8.94021 24.5761 10.035 23.4813 10.035 22.1432C10.035 20.805 8.94021 19.7102 7.60208 19.7102ZM0.303223 0.246582V2.67954H2.73618L7.11549 11.9248L5.41242 14.8443C5.29078 15.2092 5.16913 15.6958 5.16913 16.0608C5.16913 17.3989 6.26396 18.4937 7.60208 18.4937H22.1998V16.0608H8.08867C7.96703 16.0608 7.84538 15.9391 7.84538 15.8175V15.6958L8.94021 13.6278H17.9421C18.9153 13.6278 19.6452 13.1412 20.0101 12.4113L24.3895 4.50425C24.6328 4.26095 24.6328 4.13931 24.6328 3.89601C24.6328 3.16613 24.1462 2.67954 23.4163 2.67954H5.41242L4.3176 0.246582H0.303223ZM19.7668 19.7102C18.4287 19.7102 17.3339 20.805 17.3339 22.1432C17.3339 23.4813 18.4287 24.5761 19.7668 24.5761C21.105 24.5761 22.1998 23.4813 22.1998 22.1432C22.1998 20.805 21.105 19.7102 19.7668 19.7102Z" fill="white"/>
</svg>
