<svg width="434" height="328" viewBox="0 0 434 328" fill="none" xmlns="http://www.w3.org/2000/svg">
<path d="M364.041 3.63747C363.71 2.58359 364.297 1.46111 365.351 1.13035C366.404 0.799588 367.527 1.38579 367.858 2.43968L364.041 3.63747ZM167.984 169.262L169.983 169.326L167.984 169.262ZM218.892 190.98L220.872 191.262L218.892 190.98ZM64.1669 315.159C63.1822 314.659 62.7895 313.455 63.2899 312.47L71.4439 296.423C71.9442 295.438 73.1481 295.045 74.1329 295.546C75.1176 296.046 75.5103 297.25 75.0099 298.235L67.7619 312.499L82.0261 319.747C83.0108 320.247 83.4035 321.451 82.9031 322.436C82.4027 323.421 81.1988 323.813 80.2141 323.313L64.1669 315.159ZM367.858 2.43968C395.318 89.934 353.562 158.479 301.859 185.904L299.985 182.371C350.075 155.801 390.894 89.1975 364.041 3.63747L367.858 2.43968ZM301.859 185.904C276.081 199.578 242.139 206.557 214.73 204.75C201.033 203.846 188.761 200.736 179.937 194.979C171.014 189.159 165.623 180.613 165.985 169.199L169.983 169.326C169.671 179.152 174.199 186.46 182.123 191.629C190.145 196.863 201.649 199.878 214.993 200.758C241.666 202.518 274.867 195.694 299.985 182.371L301.859 185.904ZM165.985 169.199C166.275 160.069 170.375 153.203 176.331 149.055C182.244 144.936 189.87 143.575 197.148 145.154C204.451 146.739 211.427 151.288 216.046 159C220.661 166.706 222.841 177.426 220.872 191.262L216.912 190.698C218.783 177.549 216.655 167.803 212.614 161.055C208.576 154.313 202.548 150.419 196.299 149.063C190.025 147.701 183.551 148.901 178.617 152.337C173.727 155.743 170.234 161.424 169.983 169.326L165.985 169.199ZM220.872 191.262C214.203 238.121 165.385 282.763 65.693 315.277L64.4527 311.475C163.93 279.03 210.594 235.089 216.912 190.698L220.872 191.262Z" fill="white"/>
</svg>
