<svg width="227" height="180" viewBox="0 0 227 180" fill="none" xmlns="http://www.w3.org/2000/svg">
<path d="M86.4424 29.3792C85.4086 29.7683 84.8861 30.9218 85.2752 31.9556C85.6643 32.9893 86.8178 33.5119 87.8515 33.1228L86.4424 29.3792ZM191.823 73.6867L193.415 74.8972L191.823 73.6867ZM31.2828 165.21C30.812 166.209 31.2404 167.401 32.2396 167.872L48.5229 175.544C49.5221 176.014 50.7138 175.586 51.1846 174.587C51.6553 173.587 51.2269 172.396 50.2277 171.925L35.7537 165.106L42.573 150.632C43.0438 149.632 42.6154 148.441 41.6162 147.97C40.617 147.499 39.4253 147.928 38.9545 148.927L31.2828 165.21ZM87.8515 33.1228C129.598 17.409 163.672 17.003 182.91 25.6485C192.474 29.9461 198.174 36.3687 199.675 44.0974C201.186 51.8788 198.552 61.5325 190.23 72.4762L193.415 74.8972C202.123 63.4439 205.41 52.6457 203.602 43.3348C201.783 33.9712 194.922 26.661 184.55 22C163.918 12.7281 128.625 13.5012 86.4424 29.3792L87.8515 33.1228ZM190.23 72.4762C174.697 92.9048 146.269 111.907 116.044 127.815C85.8833 143.689 54.2002 156.349 32.4155 164.18L33.7686 167.945C55.658 160.076 87.5268 147.345 117.907 131.355C148.221 115.399 177.321 96.0631 193.415 74.8972L190.23 72.4762Z" fill="white"/>
</svg>
