<svg width="87" height="73" viewBox="0 0 87 73" fill="none" xmlns="http://www.w3.org/2000/svg">
<path d="M21.4789 3.64502C21.4789 5.29732 20.1394 6.63677 18.4871 6.63677C16.8348 6.63677 15.4954 5.29732 15.4954 3.64502C15.4954 1.99272 16.8348 0.653275 18.4871 0.653275C20.1394 0.653275 21.4789 1.99272 21.4789 3.64502Z" fill="#E4002B"/>
<path d="M22.6534 12.5113C22.6534 14.1636 21.314 15.5031 19.6617 15.5031C18.0094 15.5031 16.6699 14.1636 16.6699 12.5113C16.6699 10.859 18.0094 9.51959 19.6617 9.51959C21.314 9.51959 22.6534 10.859 22.6534 12.5113Z" fill="#E4002B"/>
<path d="M24.7739 21.3777C24.7739 23.03 23.4344 24.3694 21.7822 24.3694C20.1299 24.3694 18.7904 23.03 18.7904 21.3777C18.7904 19.7254 20.1299 18.3859 21.7822 18.3859C23.4344 18.3859 24.7739 19.7254 24.7739 21.3777Z" fill="#E4002B"/>
<path d="M28.2873 30.2442C28.2873 31.8965 26.9478 33.236 25.2955 33.236C23.6432 33.236 22.3038 31.8965 22.3038 30.2442C22.3038 28.5919 23.6432 27.2525 25.2955 27.2525C26.9478 27.2525 28.2873 28.5919 28.2873 30.2442Z" fill="#E4002B"/>
<path d="M32.0453 38.4644C32.0453 40.1167 30.7059 41.4562 29.0536 41.4562C27.4013 41.4562 26.0618 40.1167 26.0618 38.4644C26.0618 36.8121 27.4013 35.4727 29.0536 35.4727C30.7059 35.4727 32.0453 36.8121 32.0453 38.4644Z" fill="#E4002B"/>
<path d="M38.9738 46.3325C38.9738 47.9848 37.6343 49.3242 35.982 49.3242C34.3297 49.3242 32.9903 47.9848 32.9903 46.3325C32.9903 44.6802 34.3297 43.3407 35.982 43.3407C37.6343 43.3407 38.9738 44.6802 38.9738 46.3325Z" fill="#E4002B"/>
<path d="M47.4292 54.2595C47.4292 55.9118 46.0898 57.2512 44.4375 57.2512C42.7852 57.2512 41.4457 55.9118 41.4457 54.2595C41.4457 52.6072 42.7852 51.2677 44.4375 51.2677C46.0898 51.2677 47.4292 52.6072 47.4292 54.2595Z" fill="#E4002B"/>
<path d="M55.6497 62.3625C55.6497 64.0148 54.3102 65.3543 52.6579 65.3543C51.0056 65.3543 49.6662 64.0148 49.6662 62.3625C49.6662 60.7102 51.0056 59.3708 52.6579 59.3708C54.3102 59.3708 55.6497 60.7102 55.6497 62.3625Z" fill="#E4002B"/>
<path d="M61.6332 69.9958C61.6332 71.6481 60.2937 72.9876 58.6414 72.9876C56.9891 72.9876 55.6497 71.6481 55.6497 69.9958C55.6497 68.3435 56.9891 67.0041 58.6414 67.0041C60.2937 67.0041 61.6332 68.3435 61.6332 69.9958Z" fill="#E4002B"/>
<path fill-rule="evenodd" clip-rule="evenodd" d="M37.1581 69.9207C37.1581 68.9765 37.9235 68.2111 38.8677 68.2111L52.594 68.2111C53.5382 68.2111 54.3036 68.9765 54.3036 69.9207C54.3036 70.8649 53.5382 71.6303 52.594 71.6303L38.8676 71.6303C37.9235 71.6303 37.1581 70.8649 37.1581 69.9207Z" fill="white"/>
<path fill-rule="evenodd" clip-rule="evenodd" d="M39.8592 62.4048C39.8592 61.4607 40.6246 60.6953 41.5688 60.6953H46.6049C47.549 60.6953 48.3144 61.4607 48.3144 62.4048C48.3144 63.349 47.549 64.1144 46.6049 64.1144H41.5688C40.6246 64.1144 39.8592 63.349 39.8592 62.4048Z" fill="white"/>
<path fill-rule="evenodd" clip-rule="evenodd" d="M40.21 46.3163C40.21 45.3722 40.9754 44.6068 41.9195 44.6068H48.4839C49.4281 44.6068 50.1935 45.3722 50.1935 46.3163C50.1935 47.2605 49.4281 48.0259 48.4839 48.0259H41.9195C40.9754 48.0259 40.21 47.2605 40.21 46.3163Z" fill="white"/>
<path fill-rule="evenodd" clip-rule="evenodd" d="M33.4573 38.5656C33.4573 37.6215 34.2227 36.8561 35.1669 36.8561H55.1188C56.063 36.8561 56.8284 37.6215 56.8284 38.5656C56.8284 39.5098 56.063 40.2752 55.1188 40.2752H35.1669C34.2227 40.2752 33.4573 39.5098 33.4573 38.5656Z" fill="white"/>
<path fill-rule="evenodd" clip-rule="evenodd" d="M29.7603 30.2441C29.7603 29.2999 30.5257 28.5345 31.4698 28.5345H57.9374C58.8816 28.5345 59.647 29.2999 59.647 30.2441C59.647 31.1882 58.8816 31.9536 57.9374 31.9536H31.4698C30.5257 31.9536 29.7603 31.1882 29.7603 30.2441Z" fill="white"/>
<path fill-rule="evenodd" clip-rule="evenodd" d="M26.9418 21.5376C26.9418 20.5934 27.7072 19.828 28.6513 19.828H59.9338C60.8779 19.828 61.6433 20.5934 61.6433 21.5376C61.6433 22.4817 60.8779 23.2471 59.9338 23.2471H28.6513C27.7072 23.2471 26.9418 22.4817 26.9418 21.5376Z" fill="white"/>
<path fill-rule="evenodd" clip-rule="evenodd" d="M24.182 12.7302C24.182 11.786 24.9474 11.0206 25.8916 11.0206H61.5778C62.5219 11.0206 63.2873 11.786 63.2873 12.7302C63.2873 13.6743 62.5219 14.4397 61.5778 14.4397H25.8916C24.9474 14.4397 24.182 13.6743 24.182 12.7302Z" fill="white"/>
<path fill-rule="evenodd" clip-rule="evenodd" d="M0.38309 11.0206H12.7349C13.679 11.0206 14.4444 11.786 14.4444 12.7301C14.4444 13.6743 13.679 14.4397 12.7349 14.4397H3.5C3.47715 15.0543 3.46675 15.8307 3.49406 16.7234C3.56527 19.0509 3.89138 22.1136 4.88642 25.1465C5.88057 28.1768 7.51634 31.1012 10.1592 33.2703C12.7796 35.4209 16.5272 36.9427 21.9684 36.9535C22.9126 36.9553 23.6764 37.7222 23.6746 38.6664C23.6727 39.6106 22.9058 40.3745 21.9616 40.3726C15.8406 40.3605 11.2993 38.6293 7.99002 35.9132C4.7032 33.2156 2.7686 29.6596 1.63765 26.2124C0.507576 22.7678 0.15386 19.3558 0.07652 16.828C0.0376802 15.5586 0.0681737 14.4981 0.10894 13.7496C0.129341 13.375 0.152366 13.0776 0.170723 12.8702C0.179903 12.7664 0.187924 12.6851 0.193877 12.6278C0.196854 12.5991 0.199315 12.5765 0.201146 12.56L0.203408 12.5399L0.204158 12.5334L0.204434 12.5311C0.204543 12.5302 0.204641 12.5293 1.90238 12.7301L0.204641 12.5293L0.38309 11.0206Z" fill="white"/>
<path fill-rule="evenodd" clip-rule="evenodd" d="M7.08611 11.0388C8.0199 11.1757 8.66602 12.0434 8.52976 12.9771C8.52971 12.9775 8.52965 12.9779 8.52959 12.9783L6.83811 12.7303L5.14662 12.4823C5.28359 11.5481 6.15193 10.9018 7.08611 11.0388ZM6.83811 12.7303C5.14662 12.4823 5.14652 12.483 5.1464 12.4838L5.1461 12.4859L5.14525 12.4918L5.1426 12.5105C5.14042 12.5259 5.13744 12.5474 5.13376 12.5748C5.1264 12.6295 5.11623 12.7076 5.10408 12.8075C5.07976 13.0074 5.04744 13.2949 5.01363 13.6579C4.94605 14.3832 4.87221 15.4128 4.84477 16.6479C4.79011 19.1075 4.91803 22.4332 5.67231 25.8121C6.42424 29.1805 7.82578 32.7234 10.4087 35.4889C13.0341 38.2999 16.768 40.1847 21.9027 40.3717C22.8462 40.406 23.639 39.669 23.6733 38.7254C23.7077 37.7819 22.9706 36.9891 22.0271 36.9548C17.7476 36.799 14.8835 35.2708 12.9074 33.1551C10.8889 30.9939 9.68552 28.0964 9.00932 25.0672C8.33547 22.0486 8.21204 19.0197 8.26306 16.7239C8.28845 15.5814 8.35671 14.6331 8.41802 13.9751C8.44865 13.6463 8.47747 13.3907 8.49819 13.2204C8.50855 13.1353 8.51687 13.0715 8.52237 13.0307C8.52512 13.0102 8.52716 12.9955 8.5284 12.9867L8.52959 12.9783" fill="white"/>
<path fill-rule="evenodd" clip-rule="evenodd" d="M86.6166 11.0206H71.5628C70.6186 11.0206 69.8532 11.786 69.8532 12.7301C69.8532 13.6743 70.6186 14.4397 71.5628 14.4397H83.4997C83.5225 15.0543 83.5329 15.8307 83.5056 16.7234C83.4344 19.0509 83.1083 22.1136 82.1133 25.1465C81.1191 28.1768 79.4834 31.1012 76.8405 33.2703C74.2201 35.4209 70.4725 36.9427 65.0313 36.9535C64.0871 36.9553 63.3232 37.7222 63.3251 38.6664C63.327 39.6106 64.0939 40.3745 65.0381 40.3726C71.1591 40.3605 75.7004 38.6293 79.0097 35.9132C82.2965 33.2156 84.2311 29.6596 85.362 26.2124C86.4921 22.7678 86.8458 19.3558 86.9232 16.828C86.962 15.5586 86.9315 14.4981 86.8908 13.7496C86.8704 13.375 86.8473 13.0776 86.829 12.8702C86.8198 12.7664 86.8118 12.6851 86.8058 12.6278C86.8028 12.5991 86.8004 12.5765 86.7985 12.56L86.7963 12.5399L86.7955 12.5334L86.7953 12.5311C86.7952 12.5302 86.7951 12.5293 85.0973 12.7301L86.7951 12.5293L86.6166 11.0206Z" fill="white"/>
<path fill-rule="evenodd" clip-rule="evenodd" d="M79.9135 11.0388C78.9797 11.1757 78.3336 12.0434 78.4699 12.9771C78.4699 12.9775 78.47 12.9779 78.47 12.9783L80.1615 12.7303L81.853 12.4823C81.716 11.5481 80.8477 10.9018 79.9135 11.0388ZM80.1615 12.7303C81.853 12.4823 81.8531 12.483 81.8532 12.4838L81.8535 12.4859L81.8544 12.4918L81.857 12.5105C81.8592 12.5259 81.8622 12.5474 81.8659 12.5748C81.8732 12.6295 81.8834 12.7076 81.8956 12.8075C81.9199 13.0074 81.9522 13.2949 81.986 13.6579C82.0536 14.3832 82.1274 15.4128 82.1549 16.6479C82.2095 19.1075 82.0816 22.4332 81.3273 25.8121C80.5754 29.1805 79.1739 32.7234 76.591 35.4889C73.9656 38.2999 70.2317 40.1847 65.0969 40.3717C64.1534 40.406 63.3607 39.669 63.3263 38.7254C63.292 37.7819 64.029 36.9891 64.9725 36.9548C69.2521 36.799 72.1161 35.2708 74.0922 33.1551C76.1107 30.9939 77.3141 28.0964 77.9903 25.0672C78.6642 22.0486 78.7876 19.0197 78.7366 16.7239C78.7112 15.5814 78.6429 14.6331 78.5816 13.9751C78.551 13.6463 78.5222 13.3907 78.5014 13.2204C78.4911 13.1353 78.4828 13.0715 78.4773 13.0307C78.4745 13.0102 78.4725 12.9955 78.4712 12.9867L78.47 12.9783" fill="white"/>
<path fill-rule="evenodd" clip-rule="evenodd" d="M22.6534 3.74624C22.6534 2.80207 23.4188 2.03667 24.363 2.03667H62.6348C63.579 2.03667 64.3444 2.80207 64.3444 3.74624C64.3444 4.69041 63.579 5.45581 62.6348 5.45581H24.363C23.4188 5.45581 22.6534 4.69041 22.6534 3.74624Z" fill="white"/>
<path d="M69.4335 3.67547C69.4335 4.74414 68.5671 5.61046 67.4985 5.61046C66.4298 5.61046 65.5635 4.74414 65.5635 3.67547C65.5635 2.60681 66.4298 1.74049 67.4985 1.74049C68.5671 1.74049 69.4335 2.60681 69.4335 3.67547Z" fill="white"/>
<path d="M68.2142 12.5115C68.2142 13.5802 67.3479 14.4465 66.2792 14.4465C65.2106 14.4465 64.3442 13.5802 64.3442 12.5115C64.3442 11.4429 65.2106 10.5766 66.2792 10.5766C67.3479 10.5766 68.2142 11.4429 68.2142 12.5115Z" fill="white"/>
<path d="M66.6305 21.502C66.6305 22.5707 65.7642 23.437 64.6955 23.437C63.6269 23.437 62.7606 22.5707 62.7606 21.502C62.7606 20.4334 63.6269 19.567 64.6955 19.567C65.7642 19.567 66.6305 20.4334 66.6305 21.502Z" fill="white"/>
<path d="M64.6957 30.2442C64.6957 31.3128 63.8293 32.1792 62.7607 32.1792C61.692 32.1792 60.8257 31.3128 60.8257 30.2442C60.8257 29.1755 61.692 28.3092 62.7607 28.3092C63.8293 28.3092 64.6957 29.1755 64.6957 30.2442Z" fill="white"/>
<path d="M61.6433 38.4644C61.6433 39.5331 60.777 40.3994 59.7083 40.3994C58.6396 40.3994 57.7733 39.5331 57.7733 38.4644C57.7733 37.3957 58.6396 36.5294 59.7083 36.5294C60.777 36.5294 61.6433 37.3957 61.6433 38.4644Z" fill="white"/>
<path d="M55.2995 46.3327C55.2995 47.4014 54.4332 48.2677 53.3645 48.2677C52.2958 48.2677 51.4295 47.4014 51.4295 46.3327C51.4295 45.264 52.2958 44.3977 53.3645 44.3977C54.4332 44.3977 55.2995 45.264 55.2995 46.3327Z" fill="white"/>
<path d="M38.7701 62.3627C38.7701 63.4314 37.9038 64.2977 36.8351 64.2977C35.7665 64.2977 34.9001 63.4314 34.9001 62.3627C34.9001 61.2941 35.7665 60.4277 36.8351 60.4277C37.9038 60.4277 38.7701 61.2941 38.7701 62.3627Z" fill="white"/>
<path d="M35.9823 69.9958C35.9823 71.0644 35.116 71.9308 34.0474 71.9308C32.9787 71.9308 32.1124 71.0644 32.1124 69.9958C32.1124 68.9271 32.9787 68.0608 34.0474 68.0608C35.116 68.0608 35.9823 68.9271 35.9823 69.9958Z" fill="white"/>
</svg>
