<svg width="80" height="77" viewBox="0 0 80 77" fill="none" xmlns="http://www.w3.org/2000/svg">
<path d="M1.09984 62.2418L14.3705 49.6778C14.3705 49.6778 16.653 47.9599 20.0618 47.9599C22.639 47.9599 25.1446 49.4632 26.0752 50.2149H45.6189C47.0507 50.5728 49.9142 52.0833 49.9142 55.2619C49.9142 58.4404 47.0507 59.6646 45.6189 59.8793H32.9477" stroke="#E4002B" stroke-width="3"/>
<path d="M10.347 75.4126L16.3971 70.4367H45.0461L76.305 52.5395C76.305 52.5395 79.0763 50.1821 76.862 46.6867C74.6659 43.2199 70.8532 44.8496 70.8532 44.8496L57.2523 52.5395" stroke="#E4002B" stroke-width="3"/>
<path d="M36.9314 42.3988C36.2678 37.5513 33.9952 25.7966 31.4329 21.2261M31.4329 21.2261C26.7008 21.7455 17.4443 19.2273 19.7504 2.5874C25.4634 3.91471 37.0052 9.38981 31.4329 21.2261Z" stroke="white" stroke-width="3"/>
<path d="M36.8759 42.3478C36.5721 39.8231 37.6895 33.6797 44.5902 29.3038M44.5902 29.3038C37.9983 18.8547 45.1514 1.60317 77.2704 8.54579C74.7458 23.6936 59.5979 47.9582 44.5902 29.3038Z" stroke="white" stroke-width="3"/>
<path d="M45.8096 28.3724L66.677 15.2813" stroke="#E4002B" stroke-width="3"/>
<path d="M56.6585 13.498L56.6583 20.7964" stroke="#E4002B" stroke-width="3"/>
<line x1="50.3031" y1="24.9857" x2="58.8785" y2="30.1308" stroke="#E4002B" stroke-width="3"/>
</svg>
