<svg width="410" height="49" viewBox="0 0 410 49" fill="none" xmlns="http://www.w3.org/2000/svg">
<path d="M80.4776 7.26104C78.665 6.8079 77.215 6.62664 75.3118 6.53602C74.043 6.44539 72.8648 6.44539 71.596 6.44539C69.6928 6.44539 67.7897 6.44539 65.8865 6.53602C62.5333 6.62664 58.9988 8.80171 58.9988 8.80171L59.3613 6.89853H50.5704C47.6703 19.7677 44.1358 35.1744 41.2357 48.1341H50.2079C51.4767 42.7871 53.2892 35.1744 54.558 29.8273C56.0081 31.8212 57.8206 32.5462 60.7207 32.4555C64.4364 32.4555 68.1522 32.4555 71.7773 32.3649C76.5806 32.2743 79.9338 29.918 81.3838 25.3866C82.562 21.6708 83.3776 17.7739 84.1027 13.9675C84.2839 12.88 84.4652 11.7924 84.1933 10.6143C83.8308 9.16422 82.1089 7.62355 80.4776 7.26104ZM74.6774 16.0519C74.2242 18.4989 73.5898 20.8552 72.7742 23.3021C72.3211 24.6616 71.2335 25.3866 69.7835 25.3866C67.1553 25.3866 64.4364 25.4772 61.8082 25.4772C60.6301 25.4772 59.4519 25.4772 58.2738 25.4772C56.8237 25.4772 56.0081 24.5709 56.1893 23.1209C56.6425 20.5833 57.2769 18.0457 58.0019 15.5988C58.3644 14.33 59.5425 13.6956 60.902 13.605C62.8051 13.5144 64.799 13.605 66.7021 13.605C68.6053 13.605 70.5991 13.5144 72.5023 13.605C74.3149 13.605 75.0399 14.4206 74.6774 16.0519ZM191.497 13.2425H180.077L175.999 32.1837H167.299L171.287 13.3331H159.867L161.317 6.89853H192.856L191.497 13.2425ZM46.5828 0.73584L39.6044 32.0024H29.9979L35.1637 8.25794H15.3162L9.87854 32.093H0.00012207L7.06909 0.73584H46.5828ZM117.091 6.98915C115.913 6.71727 114.644 6.53602 113.375 6.53602C111.019 6.53602 108.572 6.53602 106.216 6.53602C103.769 6.53602 101.413 6.53602 98.9656 6.62664C97.5156 6.62664 95.9749 6.8079 94.6155 7.17041C91.9873 7.71418 89.9028 9.07359 88.634 11.5205C86.2777 16.3238 85.0996 21.5802 85.2808 26.9273C85.3714 29.1929 86.5496 30.9149 88.7247 31.6399C90.1747 32.093 91.806 32.3649 93.3467 32.4555C95.8843 32.6368 98.4218 32.4555 100.959 32.4555C103.588 32.4555 106.125 32.5462 108.753 32.4555C114.554 32.1837 117.635 29.8273 119.447 24.2991C119.901 22.9396 120.354 21.6708 120.535 20.3114C120.988 17.5926 121.441 14.9644 121.441 12.2456C121.441 9.16422 119.991 7.62355 117.091 6.98915ZM110.657 23.9365C110.113 25.0241 109.116 25.3866 108.028 25.3866C106.035 25.3866 104.041 25.3866 102.047 25.3866C100.869 25.3866 99.6 25.3866 98.4218 25.3866C97.6062 25.3866 96.8812 25.3866 96.0655 25.3866C94.4342 25.296 93.7998 24.7522 93.9811 23.1209C94.4342 20.4927 95.0686 17.9551 95.703 15.4175C96.0655 14.1487 97.1531 13.5144 98.3312 13.5144C102.591 13.4237 106.85 13.5144 111.11 13.5144C112.107 13.5144 112.65 14.2394 112.56 15.1456C112.379 18.227 111.925 21.2177 110.657 23.9365ZM157.964 13.1518C157.874 14.0581 157.421 16.3238 157.33 16.6863H148.901C148.901 16.6863 148.992 16.3238 148.992 16.1426C149.264 13.8769 149.083 13.605 146.908 13.5144C144.279 13.4237 141.742 13.4237 139.114 13.4237C138.117 13.4237 137.211 13.4237 136.214 13.4237C134.854 13.4237 133.676 14.0581 133.314 15.3269C132.589 17.9551 132.045 20.6739 131.501 23.3928C131.138 24.8428 132.951 25.296 133.495 25.296C137.029 25.296 140.564 25.3866 144.008 25.296C146.636 25.2053 146.817 25.0241 147.633 22.5771C147.723 22.3052 147.905 21.6708 147.905 21.6708C147.905 21.6708 153.523 21.6708 156.514 21.6708C155.608 25.6585 154.792 29.5555 150.714 31.1868C148.992 31.9118 147.089 32.2743 145.186 32.2743C140.111 32.3649 135.035 32.3649 129.96 32.2743C128.782 32.2743 127.695 32.0024 126.607 31.6399C124.251 30.9149 122.982 29.2836 122.891 26.8366C122.619 21.6708 123.707 16.6863 125.973 12.0643C127.876 8.34857 131.229 6.71727 135.217 6.44539C137.12 6.35476 139.114 6.26413 141.017 6.26413C142.286 6.26413 143.554 6.26413 144.733 6.26413C147.542 6.26413 150.261 6.26413 152.98 6.62664C156.424 7.26104 158.146 9.61736 157.964 13.1518ZM222.491 7.07978C221.404 6.8079 220.316 6.53602 219.229 6.53602C216.147 6.53602 212.975 6.44539 209.894 6.44539C207.719 6.44539 205.544 6.44539 203.459 6.44539C202.1 6.44539 200.741 6.71727 199.472 7.07978C195.937 7.98606 193.309 11.3393 193.309 14.8738H202.009C203.006 12.6987 203.55 12.2456 205.906 12.2456C208.535 12.1549 211.072 12.2456 213.7 12.2456C214.516 12.2456 215.241 12.3362 216.057 12.4268C216.872 12.5174 217.416 13.0612 217.325 13.9675C217.144 15.3269 216.872 16.5957 216.6 18.227C214.697 16.4144 212.613 16.3238 210.528 16.3238C210.347 16.3238 210.075 16.3238 209.894 16.3238C209.531 16.3238 209.169 16.3238 208.897 16.3238C205.272 16.4144 201.647 16.3238 198.112 16.5957C194.759 16.8676 192.222 18.6801 190.953 21.9427C190.5 23.1209 190.228 24.2991 189.956 25.5678C189.231 29.918 190.681 32.0024 195.122 32.4555C197.206 32.6368 199.381 32.6368 201.556 32.6368C202.462 32.6368 203.459 32.6368 204.366 32.6368C207.538 32.7274 211.163 32.7274 214.063 30.8242C213.972 31.4586 213.791 32.2743 213.791 32.2743H222.491C222.672 31.9118 224.757 22.6678 225.663 18.3176C226.116 16.2332 226.388 14.0581 226.479 11.8831C226.388 9.34548 224.848 7.71418 222.491 7.07978ZM211.978 26.4741C210.166 26.4741 208.353 26.5647 206.541 26.5647C204.819 26.5647 203.006 26.5647 201.284 26.5647C200.378 26.5647 199.291 26.5647 199.109 25.3866C198.928 24.2991 199.653 23.0303 200.741 22.5771C201.284 22.3959 201.828 22.2146 202.372 22.2146C205.906 22.2146 209.441 22.2146 212.885 22.2146C213.791 22.2146 215.15 22.3959 215.604 23.0303C215.241 25.2053 214.244 26.4741 211.978 26.4741ZM370.668 21.3083C371.483 18.227 372.027 15.3269 371.755 12.3362C371.483 9.52673 369.943 7.62355 367.133 6.98915C366.046 6.71727 364.958 6.44539 363.87 6.44539C360.427 6.35476 357.073 6.35476 353.63 6.35476C352.361 6.35476 351.001 6.35476 349.733 6.35476C348.373 6.35476 347.014 6.53601 345.745 6.8079C342.21 7.53292 339.582 9.4361 338.132 12.7893C336.682 16.0519 335.957 19.4958 335.504 22.9396C335.413 24.1178 335.413 25.3866 335.504 26.5647C335.776 29.2836 337.317 31.0961 339.945 31.8212C341.485 32.2743 343.026 32.5462 344.567 32.5462C349.189 32.6368 353.811 32.6368 358.433 32.5462C360.789 32.5462 363.055 32.1837 365.139 31.0961C368.311 29.4648 369.671 26.746 370.214 23.2115H361.242C360.789 25.3866 359.43 25.9303 357.436 25.9303C356.167 25.9303 354.898 25.9303 353.72 25.9303C352.814 25.9303 351.908 25.9303 350.911 25.9303C349.37 25.9303 347.739 25.9304 346.198 25.8397C345.201 25.8397 344.386 25.296 344.386 24.2991C344.386 23.3021 344.657 22.3959 344.929 21.2177H370.668V21.3083ZM349.008 13.0612C353.086 12.9706 357.164 12.9706 361.152 13.0612C362.602 13.0612 362.964 13.9675 362.511 15.8707H346.289C346.651 13.8769 347.286 13.1518 349.008 13.0612ZM410 6.8079L405.015 32.2743H396.315L397.947 22.5771H382.449L380.455 32.2743H371.574L376.649 6.8079H385.44L383.718 15.78H399.306L401.118 6.8079H410ZM323.269 6.89853C329.432 6.89853 335.141 6.98915 335.141 6.98915C335.141 6.98915 331.788 23.7553 330.066 32.2743H321.275C322.544 25.9303 324.991 13.3331 324.991 13.3331H313.572C313.572 13.3331 310.581 13.1518 309.947 16.5051C309.313 19.7677 308.678 23.0303 307.863 26.2929C306.956 30.0992 304.6 32.093 300.703 32.5462C298.709 32.8181 296.806 32.8181 294.631 32.1837C295.084 30.0992 295.537 27.9242 295.9 25.9303C296.172 25.9303 296.353 25.9303 296.443 25.9303C296.625 25.9303 296.806 25.9303 296.987 25.9303C298.8 25.8397 299.162 25.4772 299.615 23.6647C300.431 20.1302 301.065 16.5957 301.972 13.1518C302.878 9.61736 305.506 7.53292 309.041 7.17041C311.216 6.98915 317.469 6.89853 323.269 6.89853ZM261.099 6.8079L259.83 13.1518H248.411L244.423 32.2743H235.632L239.529 13.3331H228.382L229.651 6.89853H261.099V6.8079ZM297.44 6.8079L292.275 32.2743H283.393C283.393 32.2743 283.574 31.4586 283.665 31.0055C277.955 33.2712 268.621 32.9087 265.721 32.2743C263.727 31.9118 259.105 29.7367 260.192 23.7553C261.189 18.3176 263.727 6.8079 263.727 6.8079H272.336C272.336 6.8079 269.799 19.4052 269.164 22.6678C269.074 23.0303 269.074 23.4834 269.074 23.9365C269.074 24.8428 269.527 25.296 270.433 25.3866C271.43 25.4772 278.952 25.4772 281.762 25.3866C283.937 25.296 284.662 24.7522 285.206 22.4865C286.112 18.3176 288.559 6.8079 288.559 6.8079H297.44Z" fill="white"/>
</svg>
